<?xml version="1.0" encoding="UTF-8"?>
<svg xmlns="http://www.w3.org/2000/svg" xmlns:xlink="http://www.w3.org/1999/xlink" width="50px" height="44px" viewBox="0 0 49 44" version="1.1">
<g id="surface1">
<path style=" stroke:none;fill-rule:nonzero;fill:rgb(0%,0%,0%);fill-opacity:1;" d="M 0 9.667969 L 0 36.292969 C 0 37.839844 0.859375 39.300781 2.296875 39.839844 C 9.699219 42.632812 17.097656 40.726562 24.5 38.816406 C 31.289062 37.074219 38.078125 35.320312 44.855469 37.195312 C 46.8125 37.734375 49 36.378906 49 34.324219 L 49 7.707031 C 49 6.160156 48.140625 4.699219 46.703125 4.160156 C 39.300781 1.367188 31.902344 3.273438 24.5 5.183594 C 17.710938 6.925781 10.921875 8.671875 4.144531 6.796875 C 2.179688 6.257812 0 7.613281 0 9.667969 Z M 10.890625 35.75 L 5.445312 35.75 L 5.445312 30.25 C 8.449219 30.25 10.890625 32.714844 10.890625 35.75 Z M 5.445312 19.25 L 5.445312 13.75 L 10.890625 13.75 C 10.890625 16.785156 8.449219 19.25 5.445312 19.25 Z M 38.109375 30.25 C 38.109375 27.214844 40.550781 24.75 43.554688 24.75 L 43.554688 30.25 Z M 43.554688 13.75 C 40.550781 13.75 38.109375 11.285156 38.109375 8.25 L 43.554688 8.25 Z M 32.667969 22 C 32.667969 27.320312 29.007812 31.625 24.5 31.625 C 19.992188 31.625 16.332031 27.320312 16.332031 22 C 16.332031 16.679688 19.992188 12.375 24.5 12.375 C 29.007812 12.375 32.667969 16.679688 32.667969 22 Z M 21.4375 17.875 C 21.4375 18.707031 22.023438 19.394531 22.796875 19.558594 L 22.796875 23.71875 L 22.457031 23.71875 C 21.523438 23.71875 20.757812 24.492188 20.757812 25.4375 C 20.757812 26.382812 21.523438 27.15625 22.457031 27.15625 L 26.542969 27.15625 C 27.476562 27.15625 28.242188 26.382812 28.242188 25.4375 C 28.242188 24.492188 27.476562 23.71875 26.542969 23.71875 L 26.203125 23.71875 L 26.203125 17.875 C 26.203125 16.929688 25.4375 16.15625 24.5 16.15625 L 23.140625 16.15625 C 22.203125 16.15625 21.4375 16.929688 21.4375 17.875 Z M 21.4375 17.875 "/>
</g>
</svg>
