<?xml version="1.0" encoding="UTF-8"?>
<svg xmlns="http://www.w3.org/2000/svg" xmlns:xlink="http://www.w3.org/1999/xlink" width="40px" height="40px" viewBox="0 0 40 40" version="1.1">
<g id="surface1">
<path style=" stroke:none;fill-rule:nonzero;fill:rgb(0%,0%,0%);fill-opacity:1;" d="M 28.335938 1.507812 L 24.554688 5.289062 L 34.710938 15.445312 L 38.492188 11.664062 C 40.445312 9.710938 40.445312 6.546875 38.492188 4.59375 L 35.414062 1.507812 C 33.460938 -0.445312 30.296875 -0.445312 28.34375 1.507812 Z M 22.789062 7.054688 L 4.578125 25.273438 C 3.765625 26.085938 3.171875 27.09375 2.84375 28.195312 L 0.078125 37.59375 C -0.117188 38.257812 0.0625 38.96875 0.546875 39.453125 C 1.03125 39.9375 1.742188 40.117188 2.398438 39.929688 L 11.796875 37.164062 C 12.898438 36.835938 13.90625 36.242188 14.71875 35.429688 L 32.945312 17.210938 Z M 22.789062 7.054688 "/>
</g>
</svg>
